<svg id="Layer_1" data-name="Layer 1" xmlns="http://www.w3.org/2000/svg" viewBox="0 0 309 309"><defs><style>.cls-1{fill:#fefefe;}.cls-2{fill:#df4236;}.cls-3{fill:#33a055;}.cls-4{fill:#437fe3;}.cls-5{fill:#edb12a;}.cls-6{fill:#c02d28;}.cls-7{fill:#377be3;}.cls-8{fill:#bc2322;}.cls-9{fill:none;stroke:#1d1d1b;stroke-miterlimit:10;stroke-width:2px;}</style></defs><path class="cls-1" d="M134.47,225.09l-1.4,1.66C132.8,225.32,133.27,224.77,134.47,225.09Z" transform="translate(-127.35 -206)"/><path class="cls-1" d="M430.93,226.75l-1.4-1.66C430.73,224.77,431.2,225.32,430.93,226.75Z" transform="translate(-127.35 -206)"/><path class="cls-2" d="M352.4,355.79c-14.84,10.25-28.46,22.65-42.48,34.35-7.39,6.16-15,12-22.05,18.67-4.91,4.61-8.5,3.07-13-.75-20.34-17.28-40.87-34.22-61.34-51.26a7.75,7.75,0,0,0-1.94-.88c-.13-.57-.25-1.14-.38-1.72.09-27.45.73-54.9-.32-82.35a2,2,0,0,1,.86-.36c13,10.53,26.08,21,39.05,31.61,9,7.37,17.91,14.84,26.71,22.51,3.11,2.71,5.56,2.82,8.75.08q25.64-22,51.51-43.67c4.69-3.92,9.77-7.18,14.67-10.74q.19,41.36.37,82.73C352.67,354.61,352.54,355.2,352.4,355.79Z" transform="translate(-127.35 -206)"/><path class="cls-3" d="M352.4,355.79c.14-.59.27-1.18.41-1.78,6-4.64,12-9.13,17.89-13.93,13.29-10.88,25.86-23,40.06-32.26,1.16,5.19.61,10.48.61,15.73q.08,58.65,0,117.3c0,18.23-5.71,24.91-21.17,24.95-10,0-20.06-.45-30.05.16-6.38.39-7.74-2.4-7.7-9.51C352.71,422.9,352.47,389.34,352.4,355.79Z" transform="translate(-127.35 -206)"/><path class="cls-4" d="M211.21,354.2c.13.58.25,1.15.38,1.72-.09,33.94-.14,67.88-.35,101.81,0,3.11,1.86,8.61-4.12,7.35-.28-3.41-2.34-3.62-4.55-3.62q-15,0-29.92,0c-2.22,0-4.24.25-4.65,3.56-8.33,1.48-15.95-7.89-16.06-19.71-.41-45.14-.14-90.29-.09-135.43a14.75,14.75,0,0,1,.76-3.17l2,.24c.89,1.71,2,3.13,3.7,3.62l.19.08c2.41,4.41,6.81,5.46,10.12,8.41C182.43,331.38,196.32,343.67,211.21,354.2Z" transform="translate(-127.35 -206)"/><path class="cls-5" d="M410.76,307.82c-14.2,9.25-26.77,21.38-40.06,32.26-5.87,4.8-11.92,9.29-17.89,13.93q-.18-41.37-.37-82.73c11-10.88,21.41-23.38,37.73-20.08,12.05,2.44,19.95,11.68,20.93,25.95A158,158,0,0,1,410.76,307.82Z" transform="translate(-127.35 -206)"/><path class="cls-6" d="M154.58,307l-2-.24a127.9,127.9,0,0,1-.31-30.66c2.21-21.51,21.11-30,35.51-23.91,8.95,3.79,17,11.09,23.94,19.35a2,2,0,0,0-.86.36c-3.09-3.49-8-2.22-11-6.07-9.82-12.51-25.91-14.43-37.49-4.4-3.11,2.71-7.4,6.18-6.59,10.65,2.07,11.49-.59,23.3,2.41,34.57Z" transform="translate(-127.35 -206)"/><path class="cls-7" d="M168,465c.41-3.31,2.43-3.57,4.65-3.56q15,0,29.92,0c2.21,0,4.27.21,4.55,3.62Z" transform="translate(-127.35 -206)"/><path class="cls-8" d="M158.2,306.6c-3-11.27-.34-23.08-2.41-34.57-.81-4.47,3.48-7.94,6.59-10.65,11.58-10,27.67-8.11,37.49,4.4,3,3.85,7.93,2.58,11,6.07,1.05,27.45.41,54.9.32,82.35-14.89-10.53-28.78-22.82-42.62-35.14-3.31-2.95-7.71-4-10.12-8.41,2.18-1.46,3.15-2.84-.18-3.94Z" transform="translate(-127.35 -206)"/><path class="cls-8" d="M154.58,307l3.62-.35.09.11c0,1.29,0,2.57,0,3.86C156.56,310.08,155.47,308.66,154.58,307Z" transform="translate(-127.35 -206)"/><path class="cls-6" d="M158.28,310.57c0-1.29,0-2.57,0-3.86,3.33,1.1,2.36,2.48.18,3.94Z" transform="translate(-127.35 -206)"/><rect class="cls-9" x="1" y="1" width="307" height="307"/></svg>