<svg id="Layer_1" data-name="Layer 1" xmlns="http://www.w3.org/2000/svg" viewBox="0 0 412.77 412.77"><defs><style>.cls-1{fill:#1c76ba;}.cls-2{fill:#1d77ba;}.cls-3{fill:none;stroke:#1d1d1b;stroke-miterlimit:10;stroke-width:3px;}</style></defs><path class="cls-1" d="M219.18,181.36c2.65-3.3,4.84-6.31,7.31-9.07,13.26-14.76,29.81-22.73,49.49-24.61a104.41,104.41,0,0,1,45.52,5.2c16.49,5.86,28.16,17,35.38,32.86,6.44,14.12,9,29.09,9.77,44.52,1.77,37.83.78,75.68,1.05,113.51.06,8.82,0,17.64,0,26.45,0,3.37-.22,3.61-3.49,3.62H301.74c-3.47,0-4-.5-4-4.11V263.43c0-7.89.31-15.81-1-23.65a49.43,49.43,0,0,0-6.34-18A26.47,26.47,0,0,0,273,209.47a48.2,48.2,0,0,0-26.11,1.2c-12.41,4.18-18.74,13.69-22,25.75-2.5,9.17-2.83,18.56-2.85,28q-.11,51.52,0,103.06c0,1.08-.09,2.17,0,3.24.2,2.42-.93,3.16-3.25,3.15h-63c-3.11,0-3.51-.49-3.51-4V157c0-4.15.2-4.35,4.39-4.35h57.72c4.66,0,4.89.21,4.76,5C218.87,165.37,218.81,173.09,219.18,181.36Z"/><path class="cls-1" d="M40.25,263.31V157c0-4.32,0-4.32,4.44-4.32h61.22c3.85,0,4.28.44,4.28,4.31V369.6c0,3.88-.41,4.29-4.28,4.29H44.19c-3.68,0-4-.28-4-4V263.31Z"/><path class="cls-2" d="M115.37,83.3c-.06,22.44-18,40.05-40.84,40-22.35,0-39.78-17.94-39.78-40.72.08-22.37,18-39.71,40.86-39.61a40,40,0,0,1,39.76,40.24Z"/><rect class="cls-3" x="1.5" y="1.5" width="409.77" height="409.77"/></svg>