<svg id="Layer_1" data-name="Layer 1" xmlns="http://www.w3.org/2000/svg" viewBox="0 0 314.74 314.74"><defs><style>.cls-1{fill:#01d336;}.cls-2{fill:#88fc7b;}.cls-3{fill:#78f870;}.cls-4{fill:#15d93c;}.cls-5{fill:#6ef46b;}.cls-6{fill:#64f165;}.cls-7{fill:#48e754;}.cls-8{fill:#59ed5d;}.cls-9{fill:#51eb59;}.cls-10{fill:#3ee54e;}.cls-11{fill:#2ce046;}.cls-12{fill:#25dd42;}.cls-13{fill:#1cdb3f;}.cls-14{fill:#37e24c;}.cls-15{fill:#80fa75;}.cls-16{fill:#fcfefc;}.cls-17{fill:#1d1d1b;}.cls-18{fill:none;stroke:#1d1e1b;stroke-miterlimit:10;stroke-width:2px;}</style></defs><path class="cls-1" d="M439.34,506l-.36,1.09a.2.2,0,0,0-.09.26l0,.13a1.33,1.33,0,0,0-.7,1.8l-.29.71c-1.78,0-1.24.89-.69,1.79a.18.18,0,0,1-.15.23L436,513c-1.35.14-.88,1.19-1,2,0,.16-.05.31-.07.46-.67.09-1.44,0-1.4,1.06-1,1-.35,2.52-1,3.66a.26.26,0,0,1-.18.3,4.08,4.08,0,0,0-2.71,3.69l-.14-.18.14.18a20.61,20.61,0,0,0-6.1,6.93l-.08-.09.09.08c-.76-.09-1.09.25-1,1h0a8.17,8.17,0,0,0-4.5,4h0a1.79,1.79,0,0,0-2,1.55l-.09-.13.1.12a3.08,3.08,0,0,0-3.15,2.27.26.26,0,0,1-.31.19c-1.17-.14-2.55-.32-3.3.6-1.94,2.4-4.78,3-7.36,4.2a58,58,0,0,1-18.09,4.62c-1.08.12-2.17,0-2.92,1l-2.52.2a4.09,4.09,0,0,0-2.44-.24c-4.48,0-9,.41-13.43.42q-74.58.18-149.14.07c-1.08,0-2.15-.19-3.21-.26a70.44,70.44,0,0,0-12.66,0l-2.52-.2a1.71,1.71,0,0,0-1.44-.87c-4,0-7.75-1.4-11.62-2.1-4.85-.88-9.21-3-13.42-5.29-1.71-.92-3.14-2.17-5.19-2.19a.27.27,0,0,1-.31-.19,3.1,3.1,0,0,0-3.14-2.28l.09-.1-.08.12a1.81,1.81,0,0,0-2-1.56h0a8.22,8.22,0,0,0-4.51-4h0c.06-.75-.26-1.1-1-1l.09-.09-.09.09a23.62,23.62,0,0,0-6.54-7.49l.13-.08-.12.09a3.05,3.05,0,0,0-2.27-3.14.29.29,0,0,1-.19-.32c.49-3-1.61-4.46-3.5-6.08h0c0-.86.44-1.88-1-2l-.44-1c.53-.91,1.16-1.87-.74-1.76l0-.11c.3-.87.59-1.74-.62-2.18l-.17-.88c0-.58.17-1.17-.43-1.57A4.47,4.47,0,0,1,136,502c1.11-1.41.4-2.09-1-2.49l-.18.08L135,498c1.39-1.65.36-4.2,2.27-6.07.37,1.77.63,3.14-.32,4.51a2.59,2.59,0,0,0-.13,2.61c.05.12.47.2.63.12a2.07,2.07,0,0,0,1.15-2c0-.39,0-.87.88-.84.07,1.27.4,2.51-.57,3.7a1.05,1.05,0,0,0,.32,1.7.8.8,0,0,0,1.2-.51c.6-1.95,2.14-1.71,3.65-1.71H430l3.74,0c1.82,0,1,2.31,2.3,2.74,2.13-1.75-.49-4.13.89-6.3.74,1.46.43,3.26,2.27,3.83,1-2.93-2.14-5.67-.33-8.5,1.48,1.1.1,3.42,2,4.22,0,.49,0,1,0,1.49,0,.66-.27,1.37.28,1.95l-.24,1-.6.52a.94.94,0,0,0-.93,1.05,2.16,2.16,0,0,0,.54,1.91.45.45,0,0,1-.73.14c-.65.08-1.27-1.87-2,0-.24.65-1.27,1.26-.63,1.9,1,1,1.11-.76,1.84-.86l.48-.09C439,505,438.83,505.56,439.34,506ZM141.4,504.69v.49H434.6v-.49Z" transform="translate(-129.93 -238.59)"/><path class="cls-2" d="M133.86,297c-.06-5.09,1.62-9.82,3.36-14.46,4.62-12.34,12.7-22.15,23.22-29.91a63.08,63.08,0,0,1,28.88-11.53c13.72-2,27.53-1.9,41.33-1.9q65.6,0,131.19.05a154.3,154.3,0,0,1,27.06,2.19c17.61,3.16,31.48,12.33,42.06,26.68a64.13,64.13,0,0,1,11.2,26.66,4.18,4.18,0,0,1,0,2.22,19.67,19.67,0,0,1-2.52-6.74A16.37,16.37,0,0,0,437,283a28.14,28.14,0,0,0-1.6-5.66c-.68-1.58-2.14-2.27-2.76-3.69-1.07-2.47-1.06-2.48-2.88-.26-1.42-3-3.77-3.94-7-3.94q-134.82.11-269.64.06c-.67,0-1.34,0-2,0a4.68,4.68,0,0,0-4,2.88c-.29.58-.2,1.42-1.09,1.4-.73,0-.85-.67-1-1.27-.15-.8-1-1.39-1.21-.57-.49,1.91-1.77,3.2-2.77,4.74-1.55,2.37-1.61,5.36-3,7.81-1.38,2-1.48,4.29-2,6.5-.29.69-1.08,1.13-1,2C134.7,294.37,135,295.9,133.86,297Zm296.49-28.18a5.39,5.39,0,0,0-2.31-2.09c-.41-.13-.61.41-.48.67.5,1,.81,2.23,2.12,2.52C430.13,270,430.42,269.65,430.35,268.84Zm-282.09-2.42c-1,1.07-1.74,1.86-2.45,2.71a.8.8,0,0,0,0,1.12c.26.27.71.31.87.06C147.35,269.22,148.57,268.35,148.26,266.42Z" transform="translate(-129.93 -238.59)"/><path class="cls-3" d="M133.86,297c1.09-1.12.84-2.65,1.19-4,.67-.11,1.55.29,1.88-.65a.92.92,0,0,0-.88-1.35c.51-2.21.61-4.55,2-6.5,1.59.07,2.06.76.9,2a2.46,2.46,0,0,0-.89,1.94c0,.51.1,1.05.62,1.27.74.31.78-.31.88-.79.2-.88.65-.78,1.26-.38a8.32,8.32,0,0,0,4.8,1q29.12,0,58.23,0c2.27,0,4.64-.55,6.79.87.6.39,1.44,0,2.16-.27a18.3,18.3,0,0,1,6.06-1.15c3.84-.24,7.61.53,11.43.53H431.46c3.67,0,3.66,0,4.07,3.72,0,.19.27.34.51.64.85-1.23,0-2.76,1.08-3.81s1.1-2.29-.08-3.67c-.65-.76-2.14-2.23-.08-3.38a16.37,16.37,0,0,1,2.67,7.25,19.67,19.67,0,0,0,2.52,6.74c.07.51.14,1,.22,1.55-.56.94-.89,1.84.42,2.47a25.24,25.24,0,0,1,.55,7c-.79,1.25-.19,2.64-.39,3.94h-190c-3.09,0-6.14.27-9.08-1.51-2.31-1.4-3.27-2.33-2.7-5,.2-.93.68-1.81-.21-3.07-.63,1.59-1.23,2.84-1.64,4.15a2.39,2.39,0,0,1-2.24,2c-1.46-1.06-1.4-3.41-3.41-4a.45.45,0,0,1-.17-.36,3.55,3.55,0,0,0-2.3-3.64.51.51,0,0,1-.18-.39c.17-1.85-1.14-2.72-2.39-3.62a1,1,0,0,1-.62-.87c.06-.76-.29-1.11-1.05-1.07a2,2,0,0,1-1.38-.76c-.29-.9-.79-1-1.48-.38l-1-.08,0-.82c.21-.58.8-1.17.14-1.78-1-.88-5.91.46-6.63,1.78l-.5.5c-1,.05-1,.77-1,1.5l-.76.11c-1.76-.37-2.93,1.37-4.56,1.34s-2.33.83-2.2,2.42l-.7.23a.72.72,0,0,0-.74.47h0a.85.85,0,0,0-1.1.83,1.06,1.06,0,0,1-.88.64,1.26,1.26,0,0,0-1.53,1.13,4.69,4.69,0,0,1-2.3,1.89.75.75,0,0,0-.71.64,1.68,1.68,0,0,1-1.17,1.26c-1.44.64-2.69,1.43-2.81,3.22a2,2,0,0,1-1,1.35l-1.1,0c-1.12.25-2.68-.68-3.31.67-.51,1.08.25,2.17,1.32,2.84-.05,1-.77,1-1.5,1-.37-1.71-2.19-2.52-2.42-4.86-1.21,2.48,1.58,4.23-.31,6.42-.75-2.41-2.61-2.07-4.35-2.07H133c-.21-2,.43-4-.38-5.94a27.29,27.29,0,0,1,.62-7.54c1.08-.48.93-1.19.36-2Z" transform="translate(-129.93 -238.59)"/><path class="cls-4" d="M441,495.48c-1.94-.8-.56-3.12-2-4.22-1.81,2.83,1.29,5.57.33,8.5-1.84-.57-1.53-2.37-2.27-3.83-1.38,2.17,1.24,4.55-.89,6.3-1.32-.43-.48-2.74-2.3-2.74l-3.74,0H144c-1.51,0-3-.24-3.65,1.71a.8.8,0,0,1-1.2.51,1.05,1.05,0,0,1-.32-1.7c1-1.19.64-2.43.57-3.7-.88,0-.88.45-.88.84a2.07,2.07,0,0,1-1.15,2c-.16.08-.58,0-.63-.12a2.59,2.59,0,0,1,.13-2.61c1-1.37.69-2.74.32-4.51-1.91,1.87-.88,4.42-2.27,6.07l-.6-.18-.18-.87c.45-.43.24-.72-.2-1-.12-.85-.23-1.69-.35-2.54.52-.57.42-1.05-.22-1.45-.07-.45-.13-.89-.2-1.33a1.65,1.65,0,0,0-.28-2.18l-.27-3.54c.6-.73.19-1.57.29-2.36l.13-.59c.78,0,1.85-.08,2-.69.85-3,3.23-2.31,5.27-2.31q77.43,0,154.87,0a17.49,17.49,0,0,1,5.9.67c1.69.59,2.37,0,2.35-1.65.95.46,1.76,1.73,3,.5L309,479h0c.1,1.17.92,1,1.71.94h.18l.1.15c1.33,2.46,4.08,3,6.22,4.11A88.26,88.26,0,0,0,334.13,491c2.77.73,5.47,1.83,8.39,1.89a.92.92,0,0,0,1-.36l1.47.27,1,1.19c1.79,2,3.75,2,4.48,0,.67-.11,1.43.19,2-.41H356c.4.5,1,.37,1.48.4.49,2.73,2.17,1.27,3.51,1,.13.26.22.71.4.74.54.11.53-.39.6-.75.35-.65,1.6-.39,1.48-1.5h1.44c1-.34,2.55.86,3.07-1h0a9.33,9.33,0,0,0,3.66-.44c1.07-.4.57-1,.36-1.55a4.17,4.17,0,0,1,0-.5l.48-.51c.52-1.39,2.61-1.76,2.35-3.64.85.16,1.19-.16,1-1,1.52.12,1.55-.91,1.53-2l.1.15-.11-.14c.84.05,1.89.53,2.11-.85.29-1.71,1.56-2.78,2.54-4,0,.94.1,2.17,1.33,1.85s.48-1.47.24-2.27a5.38,5.38,0,0,0-.57-1,1.68,1.68,0,0,1,1-1l.51,1.51c.16.35.33.35.49,0,.78.07,1-.7,1.5-1,2.29,1.38.24,2.41-.3,3.54-.19.42-.85.75-.3,1.24s.91,0,1.33-.26c.7-.5,1.05-1.44,2.23-1.31,6.05.68,12.12.22,18.18.27,9.82.09,19.63,0,29.45.05.82,0,2.3-.44,2.26.8-.1,2.68,1.93,2.9,3.56,3.69l.35.95a9.14,9.14,0,0,1-.27,3.53l-.53.48c-.67.57-.42,1.33-.43,2s-.07,1.63-.11,2.44C440.66,493.69,441.05,494.7,441,495.48Zm-125-11.15c-1.12.78-2.47.28-2.82,1.8-.07.31.12.75.51.64A2.64,2.64,0,0,0,315.9,484.33Zm51.54,11.54c-1-.49-1.65-.59-2.32.21A1.66,1.66,0,0,0,367.44,495.87Z" transform="translate(-129.93 -238.59)"/><path class="cls-5" d="M237,308.53a2.39,2.39,0,0,0,2.24-2c.41-1.31,1-2.56,1.64-4.15.89,1.26.41,2.14.21,3.07-.57,2.7.39,3.63,2.7,5,2.94,1.78,6,1.51,9.08,1.51H443c.22.87-.55,2.07.87,2.52l0,1.52a20.08,20.08,0,0,0,.14,9.47c0,3.33,0,6.66,0,10-2.55-1.8-5.47-1.51-8.36-1.51H260.82c-.83,0-2,.32-2.44-.1-2-1.73-3.72-.13-5.54.26v0a14.49,14.49,0,0,0-2.65-5.38c-1.48-1.77-3.35-3.52-2.08-6.81-2,2.48-2.33-.46-3.52-.46a.42.42,0,0,1-.14-.35c0-1-.18-1.87-1.33-2.15-.6-.77-1.54-1.31-1.63-2.42a.87.87,0,0,0-.81-1.09l-.29-.73a.6.6,0,0,0-.45-.69v0a1.19,1.19,0,0,0-1-1.52v0c.13-.68-.16-1-.84-1.11l-1.14-1.86Zm3.12.7c-.53.06-.61.44-.59.87s.22.82.71.81.71-.34.64-.82A1,1,0,0,0,240.15,309.23Z" transform="translate(-129.93 -238.59)"/><path class="cls-6" d="M252.84,334.18c1.82-.39,3.52-2,5.54-.26.48.42,1.61.1,2.44.1H435.61c2.89,0,5.81-.29,8.36,1.51q0,10.25,0,20.49a32.33,32.33,0,0,0-7.67-.5H262.5c-2.3,0-4.91.8-6-3-.59,2.05-1.18,3.22-.59,4.61a1.21,1.21,0,0,1-.89,1.76c-1.2.18-1-.85-1-1.54a8.36,8.36,0,0,1,1.76-4.81c.45-.66,1.12-1.25-.28-1.51a43.51,43.51,0,0,0,1.39-6.77c.19-3.73,0-7.29-3.31-8.72Z" transform="translate(-129.93 -238.59)"/><path class="cls-7" d="M444,386.5v19a31.81,31.81,0,0,0-7.67-.5H283.56c-1.14,0-2.35.31-3.36-.54a5,5,0,0,0-3.77-.95c-1.55.1-3.36.77-4.59.19A4.93,4.93,0,0,0,267,404c-.7-.29-1.14-1.15-2.07-.94h0a3.37,3.37,0,0,0-3.14-3,7.35,7.35,0,0,1-2.4-2.37.55.55,0,0,0-.54-.61v0c.18-1.17-.33-1.65-1.48-1.5h0a.5.5,0,0,0-.51-.54v0a1.75,1.75,0,0,0-1.07-2.23,1.12,1.12,0,0,1-.67-1.44c.19-.55,1.28-.92.53-1.63s-1.18.61-1.89.63l-1.24,0,0,0c.25-1.19-1-1.85-1-3,0-2.08-1.22-2.7-3.11-2.4l.08-.1-.07.11a2.05,2.05,0,0,0-1.79-2.62l-.54-1c2.31.07,4.58.76,6.93.55a1.72,1.72,0,0,1,1.86,1.39c.46,2.59,2.23,2.6,4.3,2.6q90.32,0,180.64,0A14.28,14.28,0,0,1,444,386.5Z" transform="translate(-129.93 -238.59)"/><path class="cls-8" d="M255.5,351c1.4.26.73.85.28,1.51a8.36,8.36,0,0,0-1.76,4.81c0,.69-.2,1.72,1,1.54a1.21,1.21,0,0,0,.89-1.76c-.59-1.39,0-2.56.59-4.61,1.09,3.81,3.7,3,6,3H436.31a32.33,32.33,0,0,1,7.67.5v16.5c-5.7-.93-11.44-.47-17.16-.48q-48.7-.07-97.41,0-38,0-75.93-.06c-1.63,0-3.24,1-4.86.1-1.2-.66-1.65-.3-1.64,1,0,.6-.2,1.26-.95,1.19s-.81-.78-.94-1.32a3,3,0,0,1,.83-2.52c.78-1,.75-1.8-.44-2.42a3.41,3.41,0,0,0,1-3.12.39.39,0,0,1,.2-.33c3.7-3.1,5.49-7.28,6.69-11.8a.71.71,0,0,1,.57-.78c.76.05,1.54.15,1.61-1Z" transform="translate(-129.93 -238.59)"/><path class="cls-9" d="M245.48,368c1.19.62,1.22,1.4.44,2.42a3,3,0,0,0-.83,2.52c.13.54.25,1.26.94,1.32s1-.59.95-1.19c0-1.31.44-1.67,1.64-1,1.62.88,3.23-.1,4.86-.1q38,.12,75.93.06,48.7,0,97.41,0c5.72,0,11.46-.45,17.16.48v14a14.28,14.28,0,0,0-4.17-.51q-90.33,0-180.64,0c-2.07,0-3.84,0-4.3-2.6A1.72,1.72,0,0,0,253,382c-2.35.21-4.62-.48-6.93-.55a1.08,1.08,0,0,1-.67-1.21l-.47-.78-.44-1c.39-.25.3-.37-.11-.4l0,0a3,3,0,0,0-.14-2.16A6.84,6.84,0,0,1,245.48,368Z" transform="translate(-129.93 -238.59)"/><path class="cls-10" d="M267,404a4.93,4.93,0,0,1,4.85-.32c1.23.58,3-.09,4.59-.19a5,5,0,0,1,3.77.95c1,.85,2.22.53,3.36.54H436.31a31.81,31.81,0,0,1,7.67.5c.18,4.83.22,9.66,0,14.49-52.32-.32-104.65.65-157-.5-1.51-2.09-3-.58-4.53,0-.69-.29-1.13-1.15-2.05-.93h0a1.87,1.87,0,0,0-2-2l-.94-1a1.89,1.89,0,0,0-2-2h0c-1.27-2.4-2.63-4.71-5.5-5.52h0c0-.35,0-.7,0-1.05l.91-.76c.52-.48.91-1.09.16-1.58a1,1,0,0,0-1.54.56,4,4,0,0,1-.53.78l-1.07,0-1-1Z" transform="translate(-129.93 -238.59)"/><path class="cls-11" d="M132,452.48c-.25-6-.19-12,0-18H239.73c.9,0,2.16.42,2.62-.33,1.32-2.16,2.55-1.31,4-.31a22.18,22.18,0,0,0,3,1.23c1.37.64,1.06-.42,1.17-1.08a4.34,4.34,0,0,0,2.45.52l0,0a2.45,2.45,0,0,0,1.5,2.46,2.59,2.59,0,0,1-.65,2,.78.78,0,0,0,.3,1.22.74.74,0,0,0,1.05-.26,12.38,12.38,0,0,0,.83-1.47c1.4.82,2.25,2.58,4.2,2.45l.21,0,.08.19c0,.76.12,1.4,1.13,1.26l0,0c-.62,1.57.52,2.32,1.53,3a4.67,4.67,0,0,1,1.9,4.44c-.23,1.77-2.29,1.8-3.93,1.68-.41,0-.83,0-1.25,0q-58.32,0-116.63,0C139.51,451.5,135.67,450.94,132,452.48Zm127.91-4c-.7,0-1.57,0-1.64.78-.09,1.05.9.67,1.45.69s1.51.26,1.59-.66S260.5,448.57,259.94,448.49Z" transform="translate(-129.93 -238.59)"/><path class="cls-12" d="M132,452.48c3.64-1.54,7.48-1,11.25-1q58.32,0,116.63,0c.42,0,.84,0,1.25,0,1.64.12,3.7.09,3.93-1.68a4.67,4.67,0,0,0-1.9-4.44c-1-.68-2.15-1.43-1.53-3,2.68,2.58,5.31,5.2,8,7.71,3.77,3.46,7.61,6.83,11.42,10.24a2.4,2.4,0,0,1-3-1.12,1.19,1.19,0,0,0-1.53-.45,1,1,0,0,0-.56,1c.48,1.88,2.2,2.11,3.66,2.5,1.76.48,1-1.21,1.42-1.91a6.69,6.69,0,0,1,2.87,2.1c-.53.16-1.52-.25-1.27.9.11.52.43,1.27,1.13,1,1.1-.45-.14-1.26.13-1.88,1.79.72,3.13,2.12,4.65,3.23,6.54,4.8,13.51,8.92,20.34,13.28l-2.51-.49a3.31,3.31,0,0,0-3-1c-.06-.81-.41-1.53-1.28-1.42-1.49.19-2.27-.82-3.22-1.58,0-1.19-1.15-1.09-1.77-1.48-4.53-2.83-8.27-7.18-14.13-7.51a1.54,1.54,0,0,1-1.23-.74,1.93,1.93,0,0,0-2.46-.64c-2.25.88-3.79-.16-5.24-1.65-.38-.39-.75-1.12-1.39-.6a1.13,1.13,0,0,0,.05,1.6c1.46,1.8-.06,2.1-1.26,2.38a12.35,12.35,0,0,1-2.73.14H132.07A116.93,116.93,0,0,1,132,452.48Z" transform="translate(-129.93 -238.59)"/><path class="cls-13" d="M132.07,466H268.84a12.35,12.35,0,0,0,2.73-.14c1.2-.28,2.72-.58,1.26-2.38a1.13,1.13,0,0,1-.05-1.6c.64-.52,1,.21,1.39.6,1.45,1.49,3,2.53,5.24,1.65a1.93,1.93,0,0,1,2.46.64,1.54,1.54,0,0,0,1.23.74c5.86.33,9.6,4.68,14.13,7.51.62.39,1.77.29,1.77,1.48-.84.07-1.47.42-1.41,1.37a1,1,0,0,0,1.16,1c1.77-.33,3.1,1,4.75,1.08,0,1.69-.66,2.24-2.35,1.65a17.49,17.49,0,0,0-5.9-.67q-77.44,0-154.87,0c-2,0-4.42-.71-5.27,2.31-.18.61-1.25.72-2,.69,0-2.34,0-4.67,0-7-.08-.69.28-1.51-.57-2a1.79,1.79,0,0,0-.46,0Z" transform="translate(-129.93 -238.59)"/><path class="cls-14" d="M287,419.49c52.32,1.15,104.65.18,157,.5.2,4.84.24,9.67,0,14.5-22.36,0-44.72,0-67.09-.05-2.27,0-4.62,1.71-6.9-.31-.6-.52-1.25.55-1.86.92s-1.42,1.32-2.43.58c-1.79-1.32-4.07-.65-6-1.52-.6-.27-1.6.36-1.71,1.41-1.3-1-3-1.22-4.19-2.39a15.24,15.24,0,0,0-7-3.52l-.8-.42a.47.47,0,0,0-.39-.22l-.64-.36a.43.43,0,0,0-.32-.16l-.58-.31a.62.62,0,0,0-.86-.45l-1.17-.35c-.43-1.17-1.15-1-2-.44l-2.08,0c-2.55-.75-4.86.48-7,1.32-3,1.14-5.59,3.05-8.4,4.55-4.63,2.45-9,5.49-14,7.18l-1-.13a45.21,45.21,0,0,1-8.16-4.91c-1.72-1.44-3-3.46-5.48-3.75h0c-.05-.51-.4-.64-.84-.66l0,0c-.24-1.17-.85-1.9-2.14-1.82l.12-.13-.13.13c0-.25.19-.56-.19-.67,0,0-.16.2-.24.3l-.56-.56a.49.49,0,0,0-.49-.57.5.5,0,0,0-.6-.49L288,426c0-.45-.13-.83-.7-.76l-.06,0,0-.36L287,425,286,424l.16-.37-.67-.1-.51-.51a.26.26,0,0,0,.23-.1c0-.05.12-.13.1-.15a1.94,1.94,0,0,0-.23-.27l-.06-1,0,0C286.55,421.71,287.22,421,287,419.49Zm7.32,7.92a1.58,1.58,0,0,0-1.28-1.24.71.71,0,0,0-.82.69c0,.71.67.82,1.17,1S294.2,428,294.32,427.41Z" transform="translate(-129.93 -238.59)"/><path class="cls-14" d="M250.52,434c-.11.66.2,1.72-1.17,1.08a22.18,22.18,0,0,1-3-1.23c-1.49-1-2.72-1.85-4,.31-.46.75-1.72.33-2.62.33H132c-.24-4.67-.21-9.33,0-14q49.32,0,98.63,0c1.26,0,2.66.34,3.59-.83-1.38-2.07-3.8-3.33-3.73-6.15l1,0,.77.44a.28.28,0,0,1,.23.38l.5.61h0l.46.52,0,0c-.14,2.15,1.35,2.88,3,3.45h0a.93.93,0,0,0,.94,1l0,0a1,1,0,0,0,.92,1l.06.05a1,1,0,0,0,.89,1l.1.1c.05,1,.34,1.88,1.64,1.8l-.05,0c0,1.07.48,1.61,1.58,1.51l-.09,0,.58.56-.08-.08c.13.48.51.59.93.64l0,0c-.08,1.49.88,1.84,2.09,1.93l0,0c-.18,1.23,1.09,1.65,1.46,2.58-.29,1.93.74,2.76,2.48,3Z" transform="translate(-129.93 -238.59)"/><path class="cls-7" d="M132,406c-.22-6.17-.17-12.33,0-18.5q34.57,0,69.15,0c1.05,0,2.24.36,3.1-.54s1.48-.83,2.5-.05c1.7,1.29,3.28.76,4.41-1.19A1.38,1.38,0,0,1,212,387a1,1,0,0,0-.52,1c-1.23.24-1.05.92-.66,1.81,1-.47.53-1.23.66-1.81l1.15-.07a.66.66,0,0,1,.44.79.7.7,0,0,0,.6.72l9.11,12.72c-.67.37-1.9.25-1.73,1.42.33,2.24,1.06,4.29,4.31,4.88a4.82,4.82,0,0,1-5.75-1.2,6.06,6.06,0,0,0-4.88-1.79q-37.54.06-75.08,0A31.81,31.81,0,0,0,132,406Z" transform="translate(-129.93 -238.59)"/><path class="cls-10" d="M132,406a31.81,31.81,0,0,1,7.67-.5q37.55,0,75.08,0a6.06,6.06,0,0,1,4.88,1.79,4.82,4.82,0,0,0,5.75,1.2c-3.25-.59-4-2.64-4.31-4.88-.17-1.17,1.06-1.05,1.73-1.42l0,.11a2.39,2.39,0,0,0,.58,2.74c1.2,1.46,2.51,2.83,3.78,4.23.7.76,1.18,1.89,2.55,1.59l-.06.18,0-.18a2.08,2.08,0,0,1-1.5,1.94c-.8.33-.58,1,0,1.59s1.1.76,1.42-.25c.14-.46.53-.56,1-.61-.07,2.82,2.35,4.08,3.73,6.15-.93,1.17-2.33.83-3.59.83q-49.32,0-98.63,0C131.8,415.66,131.84,410.83,132,406Z" transform="translate(-129.93 -238.59)"/><path class="cls-6" d="M132,355.51q0-11,0-22c1.33,0,2.56-.54,3.92-.53,17.68.05,35.37,0,53.05,0,0,1,0,2.08,0,3.13,0,.89-.13,1.85,1.2,1.9l.21,1.49a10.18,10.18,0,0,0,.67,5.17c.8,2.36,1.69,4.72,1.47,7.29-1,.78-.42,1.86-.55,2.8-.08.64.13,1.43-.78,1.61s-1.05-.41-1.27-1.13c-.45-1.45-1.11-2.24-2.52-.65-.64.73-1.74.36-2.63.36q-22.58,0-45.14,0A32.33,32.33,0,0,0,132,355.51Z" transform="translate(-129.93 -238.59)"/><path class="cls-11" d="M358,435.52c.11-1,1.11-1.68,1.71-1.41,1.94.87,4.22.2,6,1.52,1,.74,1.7-.13,2.43-.58s1.26-1.44,1.86-.92c2.28,2,4.63.3,6.9.31,22.37.08,44.73.05,67.09.05q.33,8,0,16a21.79,21.79,0,0,0-3.18-.47q-25.44,0-50.89,0c-.79,0-1.76-.24-1.94,1a3.14,3.14,0,0,1-1-.09c-3.36-1.34-3.39-1.33-3.07,2.21l-.83-.44A5.88,5.88,0,0,0,379.5,450a1,1,0,0,1-.42-.26A.91.91,0,0,0,378,449l-.45-.29a.92.92,0,0,0-1.08-.69l-.42-.26A.91.91,0,0,0,375,447l-.46-.28a.91.91,0,0,0-1.06-.72l-.43-.3A1,1,0,0,0,372,445a1,1,0,0,1-.42-.22.91.91,0,0,0-1.09-.75l-.44-.27-.47-.3-.47-.27L368,442c.4-.8,1.37-1.61.35-2.5a1.8,1.8,0,0,0-2.77.32c-.14.16-.46.15-.69.22a1.14,1.14,0,0,1-.4-.11c-.12-.93.37-2.09-.7-2.68s-1.7.07-2.32.79l-1,0,0-.07C361,435.7,358.85,436.29,358,435.52Z" transform="translate(-129.93 -238.59)"/><path class="cls-8" d="M132,355.51a32.33,32.33,0,0,1,7.67-.5q22.56,0,45.14,0c.89,0,2,.37,2.63-.36,1.41-1.59,2.07-.8,2.52.65.22.72.39,1.32,1.27,1.13s.7-1,.78-1.61c.13-.94-.41-2,.55-2.8,1.91,3.88,3.76,7.79,5.76,11.61,1.32,2.51,2,5.39,4.26,7.37a.39.39,0,0,1,.06.39c-1.88,1.36-3.51,1.68-4.7-.91-.4-.87-1.62-1.61-1.8-.09-.28,2.26-1.59,2.13-3.14,2.13H139.68A31.7,31.7,0,0,0,132,373Z" transform="translate(-129.93 -238.59)"/><path class="cls-9" d="M132,373a31.7,31.7,0,0,1,7.66-.51H193c1.55,0,2.86.13,3.14-2.13.18-1.52,1.4-.78,1.8.09,1.19,2.59,2.82,2.27,4.7.91h0a.92.92,0,0,0,.32,1.17c.08,1.13-.43,2.66,1.65,2.44v.18c-.16.75,0,1.27.91,1.31l.52.85c0,1.19-.39,2.55,1.51,2.62h0c.49,1.56-.29,3.93,2.56,4h0c-.13.81-.13,1.53,1,1.59l.12.07,0,.14c-1.13,2-2.71,2.48-4.41,1.19-1-.78-1.63-.86-2.5.05s-2.05.54-3.1.54q-34.57,0-69.15,0Z" transform="translate(-129.93 -238.59)"/><path class="cls-5" d="M189,333c-17.68,0-35.37,0-53.05,0-1.36,0-2.59.52-3.92.53v-9c.83-.73.47-1.71.5-2.58.06-2.65-.15-5.31.51-7.92H183c1.74,0,3.6-.34,4.35,2.07,1.89-2.19-.9-3.94.31-6.42.23,2.34,2,3.15,2.42,4.86-.23,1,.83,1.88.24,2.86-1.18,2-.85,4.31-1.67,6.37-.24.64-.27,1.54.79,1.76l0,7Z" transform="translate(-129.93 -238.59)"/><path class="cls-12" d="M388.42,451.47c-.27-1.72.7-1.48,1.49-1.48q25.44,0,50.89,0a21.79,21.79,0,0,1,3.18.47c.19,5.34.28,10.67-.06,16a48.9,48.9,0,0,0-10.4-.49c-15,.21-30-.53-45,.49.22-1.32,1-2.61.15-4,0-.69,0-1.38,0-2.07.62-1.36.78-2.55-1.12-3a2.31,2.31,0,0,0-1-1.54l-.44-.49a1,1,0,0,1-.24-.31,1.73,1.73,0,0,0-1.75-1.69.32.32,0,0,1-.14-.35c-.32-3.54-.29-3.55,3.07-2.21a4.14,4.14,0,0,1,1.43.58c.49,0,.38-.28,0-.36-.12,0-.47-.42-.46.12,0,.38-.07.84.43,1C388.54,452.25,388.75,452,388.42,451.47Z" transform="translate(-129.93 -238.59)"/><path class="cls-13" d="M388.47,466.48c15-1,30-.28,45-.49a48.9,48.9,0,0,1,10.4.49,27,27,0,0,1-.06,6.42c-1.72,1.25-.56,3.06-.89,4.58l-.09,6.51c-1.63-.79-3.66-1-3.56-3.69,0-1.24-1.44-.8-2.26-.8-9.82,0-19.63,0-29.45-.05-6.06-.05-12.13.41-18.18-.27-1.18-.13-1.53.81-2.23,1.31-.42.29-.88.67-1.33.26s.11-.82.3-1.24c.54-1.13,2.59-2.16.3-3.54.54-.91,1.09-1.83,1.61-2.75.2-.36.42-.8-.05-1.07s-.75,0-1,.35c-.7.83-1,2.19-2.52,2,1-2.14,1.74-4.36,3.5-6,.19.3.49.52.76.23.41-.45.19-.88-.26-1.2C388.47,467.14,388.47,466.81,388.47,466.48Z" transform="translate(-129.93 -238.59)"/><path class="cls-14" d="M197.56,550.7a70.44,70.44,0,0,1,12.66,0c1.06.07,2.13.26,3.21.26q74.57,0,149.14-.07c4.46,0,8.95-.37,13.43-.42a4.09,4.09,0,0,1,2.44.24,71.52,71.52,0,0,1-14.16.9q-76.29.07-152.56,0C207,551.59,202.23,551.67,197.56,550.7Z" transform="translate(-129.93 -238.59)"/><path class="cls-14" d="M163.37,540.05c2,0,3.48,1.27,5.19,2.19,4.21,2.27,8.57,4.41,13.42,5.29,3.87.7,7.62,2.08,11.62,2.1a1.71,1.71,0,0,1,1.44.87C183.62,549.62,172.85,546.8,163.37,540.05Z" transform="translate(-129.93 -238.59)"/><path class="cls-14" d="M381,550.5c.75-1,1.84-.91,2.92-1A58,58,0,0,0,402,544.85c2.58-1.19,5.42-1.8,7.36-4.2.75-.92,2.13-.74,3.3-.6-2.27,2.14-5.1,3.36-7.89,4.61A65.41,65.41,0,0,1,381,550.5Z" transform="translate(-129.93 -238.59)"/><path class="cls-2" d="M133,314c-.66,2.61-.45,5.27-.51,7.92,0,.87.33,1.85-.5,2.58a55.62,55.62,0,0,1,.63-16.44C133.47,310,132.83,312,133,314Z" transform="translate(-129.93 -238.59)"/><path class="cls-14" d="M145.9,523.57a23.62,23.62,0,0,1,6.54,7.49A24.87,24.87,0,0,1,145.9,523.57Z" transform="translate(-129.93 -238.59)"/><path class="cls-2" d="M444,325.53a20.08,20.08,0,0,1-.14-9.47A25.56,25.56,0,0,1,444,325.53Z" transform="translate(-129.93 -238.59)"/><path class="cls-14" d="M423.55,531.06a20.61,20.61,0,0,1,6.1-6.93A22,22,0,0,1,423.55,531.06Z" transform="translate(-129.93 -238.59)"/><path class="cls-14" d="M140,514c1.89,1.62,4,3.11,3.5,6.08A15.39,15.39,0,0,1,140,514Z" transform="translate(-129.93 -238.59)"/><path class="cls-2" d="M443.82,314.54c-1.42-.45-.65-1.65-.87-2.52.2-1.3-.4-2.69.39-3.94C444.32,310.17,443.83,312.37,443.82,314.54Z" transform="translate(-129.93 -238.59)"/><path class="cls-14" d="M153.45,532a8.22,8.22,0,0,1,4.51,4A11.55,11.55,0,0,1,153.45,532Z" transform="translate(-129.93 -238.59)"/><path class="cls-14" d="M418.05,536.05a8.17,8.17,0,0,1,4.5-4A11.45,11.45,0,0,1,418.05,536.05Z" transform="translate(-129.93 -238.59)"/><path class="cls-2" d="M132,473a1.79,1.79,0,0,1,.46,0l.06,2c-.25,1.14.37,2.37-.35,3.46A8.25,8.25,0,0,1,132,473Z" transform="translate(-129.93 -238.59)"/><path class="cls-4" d="M439,504.48l-.48.09c-.73.1-.85,1.84-1.84.86-.64-.64.39-1.25.63-1.9.73-1.88,1.35.07,2,0h-.05l-.27,1Z" transform="translate(-129.93 -238.59)"/><path class="cls-14" d="M442.88,484l.09-6.51h.46l.41,1c0,.5,0,1,0,1.49l-.09.68-.48,4.31Z" transform="translate(-129.93 -238.59)"/><path class="cls-11" d="M132.18,478.44c.72-1.09.1-2.32.35-3.46H133c0,2.34,0,4.67,0,7,0,.19-.08.39-.13.59a1.1,1.1,0,0,0-.48-.08l-.18-1.89a.44.44,0,0,0-.08-.67Z" transform="translate(-129.93 -238.59)"/><path class="cls-14" d="M432.54,520.14c.63-1.14,0-2.62,1-3.66l1.33-.13.06.07A9.67,9.67,0,0,1,432.54,520.14Z" transform="translate(-129.93 -238.59)"/><path class="cls-11" d="M443.43,477.47H443c.33-1.52-.83-3.33.89-4.58,0,1.36,0,2.72,0,4.09Z" transform="translate(-129.93 -238.59)"/><path class="cls-14" d="M429.65,524.13a4.08,4.08,0,0,1,2.71-3.69A9.53,9.53,0,0,1,429.65,524.13Z" transform="translate(-129.93 -238.59)"/><path class="cls-2" d="M136,502a4.47,4.47,0,0,0,.61,2.47c-.09.18-.19.35-.28.52a6.22,6.22,0,0,1-1.32-4.53Z" transform="translate(-129.93 -238.59)"/><path class="cls-14" d="M441.25,498.92c-.55-.58-.24-1.29-.28-1.95.83-.41.1-1.65,1.07-2A6,6,0,0,1,441.25,498.92Z" transform="translate(-129.93 -238.59)"/><path class="cls-14" d="M143.64,520.44a3.05,3.05,0,0,1,2.27,3.14A7,7,0,0,1,143.64,520.44Z" transform="translate(-129.93 -238.59)"/><path class="cls-14" d="M412.94,539.86a3.08,3.08,0,0,1,3.15-2.27A7,7,0,0,1,412.94,539.86Z" transform="translate(-129.93 -238.59)"/><path class="cls-14" d="M159.92,537.58a3.1,3.1,0,0,1,3.14,2.28A7,7,0,0,1,159.92,537.58Z" transform="translate(-129.93 -238.59)"/><path class="cls-14" d="M440.41,500.42l.6-.52a4.6,4.6,0,0,1-1,3.48,2.16,2.16,0,0,1-.54-1.91A.87.87,0,0,0,440.41,500.42Z" transform="translate(-129.93 -238.59)"/><path class="cls-11" d="M442,495c-1,.33-.24,1.57-1.07,2,0-.5,0-1,0-1.49.1-.78-.29-1.79.94-2.05.11.17.22.33.32.5Z" transform="translate(-129.93 -238.59)"/><path class="cls-14" d="M434.92,515.42c0-.15,0-.3.07-.46a2.85,2.85,0,0,0,1-2l1.06-1a11.36,11.36,0,0,1-2.11,4.45l-.06-.06C434.87,516.05,434.9,515.74,434.92,515.42Z" transform="translate(-129.93 -238.59)"/><path class="cls-2" d="M132.47,482.5a1.1,1.1,0,0,1,.48.08c-.1.79.31,1.63-.29,2.36A1.92,1.92,0,0,1,132.47,482.5Z" transform="translate(-129.93 -238.59)"/><path class="cls-2" d="M442.79,301c-1.31-.63-1-1.53-.42-2.47C443.11,299.29,442.92,300.17,442.79,301Z" transform="translate(-129.93 -238.59)"/><path class="cls-4" d="M136,502l-1-1.54v-1C136.35,499.92,137.06,500.6,136,502Z" transform="translate(-129.93 -238.59)"/><path class="cls-14" d="M442.21,493.93c-.1-.17-.21-.33-.32-.5,0-.81.08-1.63.11-2.44l.65,0A4.73,4.73,0,0,1,442.21,493.93Z" transform="translate(-129.93 -238.59)"/><path class="cls-14" d="M137.81,509.22c1.9-.11,1.27.85.74,1.76A2.15,2.15,0,0,1,137.81,509.22Z" transform="translate(-129.93 -238.59)"/><path class="cls-14" d="M437.17,511.74c-.55-.9-1.09-1.8.69-1.79A2,2,0,0,1,437.17,511.74Z" transform="translate(-129.93 -238.59)"/><path class="cls-14" d="M416.08,537.6a1.79,1.79,0,0,1,2-1.55A2.75,2.75,0,0,1,416.08,537.6Z" transform="translate(-129.93 -238.59)"/><path class="cls-2" d="M133.64,298.57c.57.78.72,1.49-.36,2C133.08,299.82,133,299.12,133.64,298.57Z" transform="translate(-129.93 -238.59)"/><path class="cls-2" d="M132.93,488.48a1.65,1.65,0,0,1,.28,2.18A1.71,1.71,0,0,1,132.93,488.48Z" transform="translate(-129.93 -238.59)"/><path class="cls-14" d="M158,536a1.81,1.81,0,0,1,2,1.56A2.72,2.72,0,0,1,158,536Z" transform="translate(-129.93 -238.59)"/><path class="cls-11" d="M442.65,491l-.65,0c0-.71-.24-1.47.43-2l.41.49A1.87,1.87,0,0,1,442.65,491Z" transform="translate(-129.93 -238.59)"/><path class="cls-2" d="M134.36,497.82l.6.18-.18,1.6A1.25,1.25,0,0,1,134.36,497.82Z" transform="translate(-129.93 -238.59)"/><path class="cls-2" d="M133.41,492c.64.4.74.88.22,1.45A.89.89,0,0,1,133.41,492Z" transform="translate(-129.93 -238.59)"/><path class="cls-14" d="M439.34,506c-.51-.4-.34-1-.36-1.48h0l.75-.74C440.48,504.64,439.68,505.26,439.34,506Z" transform="translate(-129.93 -238.59)"/><path class="cls-14" d="M139,512c1.41.17,1,1.19,1,2A2.59,2.59,0,0,1,139,512Z" transform="translate(-129.93 -238.59)"/><path class="cls-14" d="M137.16,506.93c1.21.44.92,1.31.62,2.18l-.81-1.6C137,507.31,137.1,507.12,137.16,506.93Z" transform="translate(-129.93 -238.59)"/><path class="cls-2" d="M443.43,477.47l.45-.48a.89.89,0,0,1,0,1.47Z" transform="translate(-129.93 -238.59)"/><path class="cls-14" d="M438.15,509.24a1.33,1.33,0,0,1,.7-1.8A1.92,1.92,0,0,1,438.15,509.24Z" transform="translate(-129.93 -238.59)"/><path class="cls-14" d="M442.84,489.44l-.41-.49.53-.48A.65.65,0,0,1,442.84,489.44Z" transform="translate(-129.93 -238.59)"/><path class="cls-14" d="M422.54,532.05c-.07-.75.26-1.09,1-1A1.22,1.22,0,0,1,422.54,532.05Z" transform="translate(-129.93 -238.59)"/><path class="cls-14" d="M152.44,531.06c.76-.11,1.08.24,1,1A1.21,1.21,0,0,1,152.44,531.06Z" transform="translate(-129.93 -238.59)"/><path class="cls-2" d="M134,496c.44.25.65.54.2,1C133.71,496.7,133.59,496.39,134,496Z" transform="translate(-129.93 -238.59)"/><path class="cls-2" d="M137.16,506.93c-.06.19-.12.38-.19.58a1.25,1.25,0,0,1-.44-1.53,1.2,1.2,0,0,1,.46.07Z" transform="translate(-129.93 -238.59)"/><path class="cls-4" d="M137,506.05a1.2,1.2,0,0,0-.46-.07l-.25-1c.09-.17.19-.34.28-.52C137.16,504.88,137,505.47,137,506.05Z" transform="translate(-129.93 -238.59)"/><path class="cls-14" d="M438.89,507.31a.2.2,0,0,1,.09-.26l.14.09Z" transform="translate(-129.93 -238.59)"/><path class="cls-2" d="M443.71,480.63l.09-.68Z" transform="translate(-129.93 -238.59)"/><path class="cls-1" d="M439.72,503.75l-.75.74.27-1Z" transform="translate(-129.93 -238.59)"/><path class="cls-2" d="M132.21,479.94a.44.44,0,0,1,.08.67C132.27,480.39,132.24,480.16,132.21,479.94Z" transform="translate(-129.93 -238.59)"/><ellipse class="cls-4" cx="158.07" cy="266.35" rx="207.32" ry="0.35"/><path class="cls-11" d="M436,513a2.85,2.85,0,0,1-1,2C435.08,514.19,434.61,513.14,436,513Z" transform="translate(-129.93 -238.59)"/><path class="cls-11" d="M434.92,515.42c0,.32-.05.63-.07.94l-1.33.12C433.48,515.45,434.25,515.51,434.92,515.42Z" transform="translate(-129.93 -238.59)"/><path class="cls-11" d="M440.41,500.42a.87.87,0,0,1-.93,1.05A.94.94,0,0,1,440.41,500.42Z" transform="translate(-129.93 -238.59)"/><path class="cls-15" d="M437,283c-2.06,1.15-.57,2.62.08,3.38,1.18,1.38,1.28,2.51.08,3.67s-.23,2.58-1.08,3.81c-.24-.3-.49-.45-.51-.64-.41-3.72-.4-3.72-4.07-3.72H230.28c-3.82,0-7.59-.77-11.43-.53a18.3,18.3,0,0,0-6.06,1.15c-.72.3-1.56.66-2.16.27-2.15-1.42-4.52-.86-6.79-.87q-29.11-.06-58.23,0a8.32,8.32,0,0,1-4.8-1c-.61-.4-1.06-.5-1.26.38-.1.48-.14,1.1-.88.79-.52-.22-.59-.76-.62-1.27a2.46,2.46,0,0,1,.89-1.94c1.16-1.21.69-1.9-.9-2,1.4-2.45,1.46-5.44,3-7.81,1-1.54,2.28-2.83,2.77-4.74.21-.82,1.06-.23,1.21.57.11.6.23,1.25,1,1.27.89,0,.8-.82,1.09-1.4a4.68,4.68,0,0,1,4-2.88c.66,0,1.33,0,2,0q134.82,0,269.64-.06c3.27,0,5.62.92,7,3.94,1.82-2.22,1.81-2.21,2.88.26.62,1.42,2.08,2.11,2.76,3.69A28.14,28.14,0,0,1,437,283Z" transform="translate(-129.93 -238.59)"/><path class="cls-15" d="M430.35,268.84c.07.81-.22,1.19-.67,1.1-1.31-.29-1.62-1.52-2.12-2.52-.13-.26.07-.8.48-.67A5.39,5.39,0,0,1,430.35,268.84Z" transform="translate(-129.93 -238.59)"/><path class="cls-15" d="M148.26,266.42c.31,1.93-.91,2.8-1.57,3.89-.16.25-.61.21-.87-.06a.8.8,0,0,1,0-1.12C146.52,268.28,147.29,267.49,148.26,266.42Z" transform="translate(-129.93 -238.59)"/><path class="cls-15" d="M136.05,291a.92.92,0,0,1,.88,1.35c-.33.94-1.21.54-1.88.65C135,292.16,135.76,291.72,136.05,291Z" transform="translate(-129.93 -238.59)"/><polygon class="cls-16" points="247.4 244.24 247.5 244.39 247.39 244.25 247.39 244.24 247.4 244.24"/><path class="cls-17" d="M257.37,395.65a2.19,2.19,0,0,0,1.48,1.5v0l.54.61a7.35,7.35,0,0,0,2.4,2.37,8,8,0,0,0,3.12,3,3.54,3.54,0,0,0,2,2l1,1a3.6,3.6,0,0,0,2,2,23.45,23.45,0,0,0,5.48,5.5,3.6,3.6,0,0,0,2,2c.31.32.63.64.94,1a3.58,3.58,0,0,0,2,2h0a3.49,3.49,0,0,0,2,2l1,.94a2.09,2.09,0,0,0,1.52,1.47l.51.51.51.47,1.06,1a.18.18,0,0,0,.24.18l.06,0a.91.91,0,0,0,.7.76l.77.66.6.49.49.57.56.56.43.37h0a3.51,3.51,0,0,0,2.14,1.82l0,0a.84.84,0,0,0,.83.66c2.24,3.07,5.58,4.78,8.61,6.86a8.52,8.52,0,0,0,5,1.79l1,.13c2.12.49,3.84-.45,5.62-1.43,7.73-4.29,15.13-9.27,23.81-11.62l2.08,0a2.38,2.38,0,0,0,2,.44l1.17.35a.75.75,0,0,0,.86.45l.58.31c0,.21.11.32.32.16l.64.36c0,.24.14.34.39.22l.8.42c4.11,2.87,8.06,6,12.79,7.87l.44.34.52.12,0,.07a1.82,1.82,0,0,0,2.11,1.18l.45.28a11.17,11.17,0,0,0,6.06,3.72l.47.27c0,.27.19.39.47.3l.44.27a.86.86,0,0,0,1.09.75,1,1,0,0,0,.42.22.79.79,0,0,0,1.1.69l.43.3c.11.59.42.9,1.06.72l.46.27c.07.64.41.91,1.05.75l.42.26c.11.62.45.88,1.08.69l.45.29c.08.63.41.91,1.05.76a1,1,0,0,0,.42.26,5.24,5.24,0,0,0,3.59,2.67l.83.44a.32.32,0,0,0,.14.35c.12,1,.92,1.38,1.75,1.69a1,1,0,0,0,.24.31.42.42,0,0,0,.44.49,2.31,2.31,0,0,1,1,1.54c.38,1,.75,2,1.12,3,0,.69,0,1.38,0,2.07a31.34,31.34,0,0,1-4.42,10.26c-2.22,3.4-4.58,6.7-6.87,10.06h0a3.06,3.06,0,0,0-1.52,2,1.22,1.22,0,0,0-1,1,31.88,31.88,0,0,1-14.29,7.25l-1.65.27a1.26,1.26,0,0,0-1.32.17h-.05l-1.51.07h-3.52l-7.52-.77-1.47-.27-1-.14c-.07-.11-.15-.12-.25,0l-.72-.23c-2.39-.7-4.79-1.38-7.17-2.11-8.15-2.49-15.72-6.33-23.36-10l-.1-.15h-.18A2.5,2.5,0,0,0,309,479c-6.83-4.35-13.79-8.47-20.33-13.27-1.52-1.11-2.85-2.5-4.64-3.23a6.69,6.69,0,0,0-2.87-2.1l0,0c-3.81-3.41-7.65-6.78-11.42-10.24-2.74-2.51-5.37-5.13-8-7.71l0,0a1.68,1.68,0,0,0-1.13-1.26l-.08-.19-.21,0a47.32,47.32,0,0,0-7.23-6.4l0,0a9.35,9.35,0,0,0-3.46-3L249,431a7.34,7.34,0,0,0-2.91-2.59,3.5,3.5,0,0,0-2.07-1.9l0,0a1,1,0,0,0-.87-.64.48.48,0,0,0-.48-.47,2.48,2.48,0,0,0-1.53-1.47,3.2,3.2,0,0,0-1.63-1.78l-.1-.1a1.28,1.28,0,0,0-.89-1l-.06-.05a1.32,1.32,0,0,0-.92-1l0,0a1.17,1.17,0,0,0-.93-1h0a10.18,10.18,0,0,0-3-3.44l0,0A.47.47,0,0,0,233,415l-.49-.6a.28.28,0,0,0-.23-.38,1.09,1.09,0,0,0-.8-1,4,4,0,0,0-1.82-2.16h0a56.29,56.29,0,0,0-6.91-8.56l0-.11-9.11-12.72-.6-.72a.66.66,0,0,0-.44-.79L212,387a1.38,1.38,0,0,0-.86-1.29l0-.14-.12-.07a2.08,2.08,0,0,0-1-1.59h0a11.72,11.72,0,0,0-2.54-4,5,5,0,0,0-1.51-2.62c-.17-.28-.35-.56-.52-.85a1.46,1.46,0,0,0-.91-1.31V375l-1.18-2.47a1.28,1.28,0,0,0-.78-1.14h-.05a.39.39,0,0,0-.06-.39,4,4,0,0,0-.76-2.07,190.09,190.09,0,0,1-7.8-17.51c-1.51-3.88-2-8-3.6-11.86l-.21-1.49c-.19-1.85,0-3.75-.8-5.53,0-2.33,0-4.67,0-7a39.63,39.63,0,0,1,5.23-15.47,2,2,0,0,0,1-1.35c1.19-.85,2.43-1.66,2.81-3.22a1.68,1.68,0,0,0,1.17-1.26l.71-.64a4.69,4.69,0,0,0,2.3-1.89c.61-.23,1.32-.34,1.53-1.13a1.06,1.06,0,0,0,.88-.64,1,1,0,0,0,1.1-.83h0l.74-.47.7-.23c2.17-1.41,4.9-1.81,6.76-3.76l.76-.11,1-.19a5,5,0,0,0,3.48-.89l1-.1a5,5,0,0,0,2.52,0l1,.08a1.29,1.29,0,0,0,1.48.38,2,2,0,0,0,1.38.76,1.51,1.51,0,0,0,1.05,1.07,1,1,0,0,0,.62.87,6,6,0,0,0,2.39,3.62.51.51,0,0,0,.18.39,6.64,6.64,0,0,0,2.3,3.64.45.45,0,0,0,.17.36,12.58,12.58,0,0,0,3.32,5.13l1.14,1.86a1,1,0,0,0,.83,1.11,1.43,1.43,0,0,0,1,1.49v0l.45.69c.1.25.2.49.29.73-.11.64.29.91.81,1.09.09,1.11,1,1.65,1.63,2.42a2.4,2.4,0,0,0,1.33,2.15.42.42,0,0,0,.14.35c.41,2.11,1.94,3.63,3.07,5.28,1.69,2.47,2.61,5.52,5.18,7.37v0c.25.44.49.89.73,1.33a10,10,0,0,0,.75,1.81c2.2,3.24,2.14,6.64.92,10.2-.45,1.32-1.38,2.49-1.26,4a3.58,3.58,0,0,0-.09.45.71.71,0,0,0-.57.78,114.29,114.29,0,0,0-6.69,11.8.39.39,0,0,0-.2.33,13.68,13.68,0,0,0-3,4.7,8.06,8.06,0,0,0,1,8.55s0,0,0,0a.33.33,0,0,0,.11.41c.15.33.29.67.44,1s.31.52.47.78a1.08,1.08,0,0,0,.67,1.21l.54,1a3.82,3.82,0,0,0,1.78,2.61h0a12.77,12.77,0,0,0,4.12,5.35l0,0c1.26,1.72,2.41,3.54,4.34,4.64h0l.5.53Z" transform="translate(-129.93 -238.59)"/><polygon class="cls-16" points="118.55 146.41 118.48 146.52 118.47 146.51 118.55 146.41"/><path class="cls-16" d="M243.12,425.85a.12.12,0,0,1,0,.08l-.08-.08Z" transform="translate(-129.93 -238.59)"/><path class="cls-16" d="M242.64,425.38v0l-.09,0Z" transform="translate(-129.93 -238.59)"/><path class="cls-16" d="M241.11,423.91v0l-.05,0Z" transform="translate(-129.93 -238.59)"/><path class="cls-16" d="M238.91,312.59v0h0Z" transform="translate(-129.93 -238.59)"/><polygon class="cls-16" points="106.62 180.37 106.62 180.38 106.61 180.37 106.62 180.37"/><path class="cls-16" d="M229.7,410.84l-.06.17,0-.18Z" transform="translate(-129.93 -238.59)"/><path class="cls-15" d="M194.62,310.06a39.63,39.63,0,0,0-5.23,15.47c-1.06-.23-1-1.13-.79-1.77.82-2.06.49-4.4,1.67-6.37.59-1-.47-1.88-.24-2.86.73,0,1.45,0,1.5-1l2-3.51Z" transform="translate(-129.93 -238.59)"/><path class="cls-15" d="M220.52,293.35l-1,.1a5.26,5.26,0,0,0-3-.92c.72-1.32,5.66-2.66,6.63-1.78.66.61.07,1.2-.14,1.78C222.16,292.74,221,292,220.52,293.35Z" transform="translate(-129.93 -238.59)"/><path class="cls-2" d="M214.26,294.64c-1.86,1.95-4.59,2.35-6.76,3.76-.13-1.59.45-2.45,2.2-2.42S212.5,294.27,214.26,294.64Z" transform="translate(-129.93 -238.59)"/><path class="cls-5" d="M193.52,310l-2,3.51c-1.07-.67-1.83-1.76-1.32-2.84C190.84,309.34,192.4,310.27,193.52,310Z" transform="translate(-129.93 -238.59)"/><path class="cls-2" d="M236.94,309.65a12.58,12.58,0,0,1-3.32-5.13c2,.6,1.95,3,3.41,4Z" transform="translate(-129.93 -238.59)"/><path class="cls-2" d="M216.52,292.53a5.26,5.26,0,0,1,3,.92,5,5,0,0,1-3.48.89V293Z" transform="translate(-129.93 -238.59)"/><path class="cls-2" d="M233.45,304.16a6.64,6.64,0,0,1-2.3-3.64A3.55,3.55,0,0,1,233.45,304.16Z" transform="translate(-129.93 -238.59)"/><path class="cls-2" d="M231,300.13a6,6,0,0,1-2.39-3.62C229.83,297.41,231.14,298.28,231,300.13Z" transform="translate(-129.93 -238.59)"/><path class="cls-15" d="M198.41,305.49c-.38,1.56-1.62,2.37-2.81,3.22C195.72,306.92,197,306.13,198.41,305.49Z" transform="translate(-129.93 -238.59)"/><path class="cls-2" d="M220.52,293.35c.47-1.37,1.64-.61,2.49-.82l0,.82A5,5,0,0,1,220.52,293.35Z" transform="translate(-129.93 -238.59)"/><path class="cls-2" d="M225.53,293.81a1.29,1.29,0,0,1-1.48-.38C224.74,292.81,225.24,292.91,225.53,293.81Z" transform="translate(-129.93 -238.59)"/><path class="cls-15" d="M216,293v1.31l-1,.19C215,293.8,215,293.08,216,293Z" transform="translate(-129.93 -238.59)"/><path class="cls-2" d="M204.12,300.57c-.21.79-.92.9-1.53,1.13A1.26,1.26,0,0,1,204.12,300.57Z" transform="translate(-129.93 -238.59)"/><path class="cls-2" d="M206.1,299.1a1,1,0,0,1-1.1.83A.85.85,0,0,1,206.1,299.1Z" transform="translate(-129.93 -238.59)"/><path class="cls-2" d="M228,295.64a1.51,1.51,0,0,1-1.05-1.07C227.67,294.53,228,294.88,228,295.64Z" transform="translate(-129.93 -238.59)"/><path class="cls-2" d="M206.8,298.63l-.74.47A.72.72,0,0,1,206.8,298.63Z" transform="translate(-129.93 -238.59)"/><path class="cls-15" d="M200.29,303.59l-.71.64A.75.75,0,0,1,200.29,303.59Z" transform="translate(-129.93 -238.59)"/><path class="cls-12" d="M311,480c7.64,3.67,15.21,7.51,23.36,10,2.38.73,4.78,1.41,7.17,2.11l.72.23c.1-.09.18-.08.25,0l0,.5c-2.92-.06-5.62-1.16-8.39-1.89a88.26,88.26,0,0,1-16.92-6.87C315.07,483.08,312.32,482.5,311,480Z" transform="translate(-129.93 -238.59)"/><path class="cls-14" d="M377.32,482.84c2.3-3.36,4.66-6.67,6.88-10.07a31.34,31.34,0,0,0,4.42-10.26c.87,1.36.07,2.65-.15,4,0,.33,0,.66,0,1a1,1,0,0,0-.5,1c-1.76,1.67-2.55,3.89-3.5,6a1,1,0,0,0-.49,1,1.68,1.68,0,0,0-1,1L382,478c-1,1.26-2.25,2.33-2.54,4C379.21,483.37,378.16,482.89,377.32,482.84Z" transform="translate(-129.93 -238.59)"/><path class="cls-14" d="M360.52,493.07a31.88,31.88,0,0,0,14.29-7.25c.26,1.88-1.83,2.25-2.35,3.64L372,490a4.17,4.17,0,0,0,0,.5c-1.71-.08-3.3.08-4,2h0c-1.11.07-2.36-.3-3.07,1h-1.44C362.54,492.9,361.41,493.85,360.52,493.07Z" transform="translate(-129.93 -238.59)"/><path class="cls-12" d="M360.52,493.07c.89.78,2-.17,2.94.39.12,1.11-1.13.85-1.48,1.5h-1c-1.34.28-3,1.74-3.51-1l0-.47h.05l1.32-.17Z" transform="translate(-129.93 -238.59)"/><path class="cls-12" d="M384,475.46a1,1,0,0,1,.49-1c1.52.21,1.82-1.15,2.52-2,.3-.35.65-.58,1-.35s.25.71.05,1.07c-.52.92-1.07,1.84-1.61,2.75-.51.31-.72,1.08-1.5,1h-.49Z" transform="translate(-129.93 -238.59)"/><path class="cls-1" d="M368,492.46c.72-1.91,2.31-2.07,4-2,.21.59.71,1.15-.36,1.55A9.33,9.33,0,0,1,368,492.46Z" transform="translate(-129.93 -238.59)"/><path class="cls-14" d="M345,492.82l7.52.77c-.57.6-1.33.3-2,.41l-3,0a4,4,0,0,0-.49,0l-1,0Z" transform="translate(-129.93 -238.59)"/><path class="cls-1" d="M347.48,494l3,0c-.73,2-2.69,2-4.48,0l1,0C347.15,494.32,347.32,494.32,347.48,494Z" transform="translate(-129.93 -238.59)"/><path class="cls-13" d="M382,478l1-1.47a5.38,5.38,0,0,1,.57,1c.24.8,1.08,1.93-.24,2.27S382,478.89,382,478Z" transform="translate(-129.93 -238.59)"/><path class="cls-13" d="M315.9,484.33a2.64,2.64,0,0,1-2.31,2.44c-.39.11-.58-.33-.51-.64C313.43,484.61,314.78,485.11,315.9,484.33Z" transform="translate(-129.93 -238.59)"/><path class="cls-13" d="M303.5,477.48a3.31,3.31,0,0,1,3,1c-1.24,1.23-2.05,0-3-.5Z" transform="translate(-129.93 -238.59)"/><path class="cls-1" d="M364.9,493.46c.71-1.31,2-.94,3.07-1C367.45,494.32,365.93,493.12,364.9,493.46Z" transform="translate(-129.93 -238.59)"/><path class="cls-1" d="M367.44,495.87a1.66,1.66,0,0,1-2.32.21C365.79,495.28,366.47,495.38,367.44,495.87Z" transform="translate(-129.93 -238.59)"/><path class="cls-14" d="M375.81,484.8a3,3,0,0,1,1.52-2C377.35,483.89,377.32,484.92,375.81,484.8Z" transform="translate(-129.93 -238.59)"/><path class="cls-12" d="M309,479a2.5,2.5,0,0,1,1.71.94C309.92,480,309.1,480.13,309,479Z" transform="translate(-129.93 -238.59)"/><path class="cls-14" d="M374.81,485.82a1.22,1.22,0,0,1,1-1C376,485.66,375.66,486,374.81,485.82Z" transform="translate(-129.93 -238.59)"/><path class="cls-1" d="M361,495h1c-.07.36-.06.86-.6.75C361.2,495.68,361.11,495.23,361,495Z" transform="translate(-129.93 -238.59)"/><path class="cls-14" d="M357.5,493.51l0,.47c-.52,0-1.08.1-1.48-.4Z" transform="translate(-129.93 -238.59)"/><path class="cls-14" d="M342.52,492.91l0-.5,1,.14A.92.92,0,0,1,342.52,492.91Z" transform="translate(-129.93 -238.59)"/><path class="cls-12" d="M372,490l.48-.51Z" transform="translate(-129.93 -238.59)"/><path class="cls-13" d="M384.48,477H385C384.81,477.32,384.64,477.32,384.48,477Z" transform="translate(-129.93 -238.59)"/><path class="cls-2" d="M252.83,334.16c-2.57-1.85-3.49-4.9-5.18-7.37-1.13-1.65-2.66-3.17-3.07-5.28,1.19,0,1.49,2.94,3.52.46-1.27,3.29.6,5,2.08,6.81A14.49,14.49,0,0,1,252.83,334.16Z" transform="translate(-129.93 -238.59)"/><path class="cls-3" d="M240.15,309.23a1,1,0,0,1,.76.86c.07.48-.15.82-.64.82s-.7-.34-.71-.81S239.62,309.29,240.15,309.23Z" transform="translate(-129.93 -238.59)"/><path class="cls-2" d="M244.44,321.16a2.4,2.4,0,0,1-1.33-2.15C244.26,319.29,244.42,320.18,244.44,321.16Z" transform="translate(-129.93 -238.59)"/><path class="cls-2" d="M239.92,314.11a1.43,1.43,0,0,1-1-1.52A1.19,1.19,0,0,1,239.92,314.11Z" transform="translate(-129.93 -238.59)"/><path class="cls-2" d="M238.92,312.62a1,1,0,0,1-.84-1.11C238.76,311.58,239.05,311.94,238.92,312.62Z" transform="translate(-129.93 -238.59)"/><path class="cls-2" d="M241.48,316.59c-.52-.18-.92-.45-.81-1.09A.87.87,0,0,1,241.48,316.59Z" transform="translate(-129.93 -238.59)"/><path class="cls-2" d="M240.38,314.77l-.45-.69A.6.6,0,0,1,240.38,314.77Z" transform="translate(-129.93 -238.59)"/><path class="cls-15" d="M254,351.51c-.12-1.5.81-2.67,1.26-4,1.22-3.56,1.28-7-.92-10.2a10,10,0,0,1-.75-1.81c3.3,1.43,3.51,5,3.32,8.72A43.51,43.51,0,0,1,255.5,351h0Z" transform="translate(-129.93 -238.59)"/><path class="cls-6" d="M252.53,390.46a12.9,12.9,0,0,1-4.13-5.36c1.89-.3,3.08.32,3.11,2.4C251.53,388.61,252.78,389.27,252.53,390.46Z" transform="translate(-129.93 -238.59)"/><path class="cls-6" d="M256.89,395.12c-1.93-1.1-3.08-2.92-4.34-4.64l1.24,0c.71,0,1.06-1.41,1.89-.63s-.34,1.08-.53,1.63a1.12,1.12,0,0,0,.67,1.44A1.75,1.75,0,0,1,256.89,395.12Z" transform="translate(-129.93 -238.59)"/><path class="cls-6" d="M264.94,403.08a7.9,7.9,0,0,1-3.14-3A3.37,3.37,0,0,1,264.94,403.08Z" transform="translate(-129.93 -238.59)"/><path class="cls-6" d="M248.41,385.11a3.82,3.82,0,0,1-1.79-2.62A2.05,2.05,0,0,1,248.41,385.11Z" transform="translate(-129.93 -238.59)"/><path class="cls-6" d="M267,405.09a3.54,3.54,0,0,1-2-2c.93-.21,1.37.65,2.07.94C267,404.37,267,404.73,267,405.09Z" transform="translate(-129.93 -238.59)"/><path class="cls-6" d="M258.85,397.15a2.19,2.19,0,0,1-1.48-1.5C258.52,395.5,259,396,258.85,397.15Z" transform="translate(-129.93 -238.59)"/><path class="cls-6" d="M259.4,397.73l-.54-.61A.55.55,0,0,1,259.4,397.73Z" transform="translate(-129.93 -238.59)"/><path class="cls-6" d="M257.39,395.64l-.5-.54A.5.5,0,0,1,257.39,395.64Z" transform="translate(-129.93 -238.59)"/><path class="cls-15" d="M244.34,378.12a8.06,8.06,0,0,1-1-8.55,13.68,13.68,0,0,1,3-4.7,3.41,3.41,0,0,1-1,3.12,6.84,6.84,0,0,0-1.28,8A3,3,0,0,1,244.34,378.12Z" transform="translate(-129.93 -238.59)"/><path class="cls-15" d="M246.63,364.54a114.29,114.29,0,0,1,6.69-11.8C252.12,357.26,250.33,361.44,246.63,364.54Z" transform="translate(-129.93 -238.59)"/><path class="cls-6" d="M254,351.51l1.52-.51c-.07,1.11-.85,1-1.61,1A3.58,3.58,0,0,1,254,351.51Z" transform="translate(-129.93 -238.59)"/><path class="cls-6" d="M245.41,380.28c-.16-.26-.32-.52-.47-.78C245.09,379.76,245.25,380,245.41,380.28Z" transform="translate(-129.93 -238.59)"/><path class="cls-6" d="M244.5,378.5a.33.33,0,0,1-.11-.41C244.8,378.13,244.89,378.25,244.5,378.5Z" transform="translate(-129.93 -238.59)"/><path class="cls-14" d="M283.41,421.55l-1-.94,0-1.11c1.51-.59,3-2.1,4.53,0-1.43-.1-2.1.57-2,2l0,0Z" transform="translate(-129.93 -238.59)"/><path class="cls-6" d="M275.43,413.58a23.62,23.62,0,0,1-5.5-5.52C272.8,408.87,274.16,411.18,275.43,413.58Z" transform="translate(-129.93 -238.59)"/><path class="cls-7" d="M269,406a4,4,0,0,0,.53-.78,1,1,0,0,1,1.54-.56c.75.49.36,1.1-.16,1.58L270,407Z" transform="translate(-129.93 -238.59)"/><path class="cls-6" d="M269,406l1,1c0,.35,0,.7,0,1.05a3.6,3.6,0,0,1-2-2Z" transform="translate(-129.93 -238.59)"/><path class="cls-6" d="M277.45,415.59a3.6,3.6,0,0,1-2-2A1.89,1.89,0,0,1,277.45,415.59Z" transform="translate(-129.93 -238.59)"/><path class="cls-6" d="M280.43,418.58a3.62,3.62,0,0,1-2-2A1.87,1.87,0,0,1,280.43,418.58Z" transform="translate(-129.93 -238.59)"/><path class="cls-6" d="M282.47,419.5l0,1.11a3.48,3.48,0,0,1-2-2C281.34,418.35,281.78,419.21,282.47,419.5Z" transform="translate(-129.93 -238.59)"/><path class="cls-12" d="M253,434.53a47.32,47.32,0,0,1,7.23,6.4c-2,.13-2.8-1.63-4.2-2.45a3,3,0,0,0-1.53-1.49A2.45,2.45,0,0,1,253,434.53Z" transform="translate(-129.93 -238.59)"/><path class="cls-12" d="M249.51,431.51a9.35,9.35,0,0,1,3.46,3,4.34,4.34,0,0,1-2.45-.52H250C249.84,433.16,249.67,432.34,249.51,431.51Z" transform="translate(-129.93 -238.59)"/><path class="cls-12" d="M259.94,448.49c.56.08,1.48-.17,1.4.81s-1,.68-1.59.66-1.54.36-1.45-.69C258.37,448.49,259.24,448.51,259.94,448.49Z" transform="translate(-129.93 -238.59)"/><path class="cls-14" d="M254.49,437a3,3,0,0,1,1.53,1.49,12.38,12.38,0,0,1-.83,1.47.74.74,0,0,1-1.05.26.78.78,0,0,1-.3-1.22A2.59,2.59,0,0,0,254.49,437Z" transform="translate(-129.93 -238.59)"/><path class="cls-12" d="M260.51,441.14a1.68,1.68,0,0,1,1.13,1.26C260.63,442.54,260.51,441.9,260.51,441.14Z" transform="translate(-129.93 -238.59)"/><path class="cls-13" d="M281.16,460.36c-.41.7.34,2.39-1.42,1.91-1.46-.39-3.18-.62-3.66-2.5a1,1,0,0,1,.56-1,1.19,1.19,0,0,1,1.53.45,2.4,2.4,0,0,0,3,1.12Z" transform="translate(-129.93 -238.59)"/><path class="cls-4" d="M303.5,477.48v.5c-1.65-.05-3-1.41-4.75-1.08a1,1,0,0,1-1.16-1c-.06-1,.57-1.3,1.41-1.37.95.76,1.73,1.77,3.22,1.58C303.09,476,303.44,476.67,303.5,477.48Z" transform="translate(-129.93 -238.59)"/><path class="cls-13" d="M284,462.46c-.27.62,1,1.43-.13,1.88-.7.29-1-.46-1.13-1-.25-1.15.74-.74,1.27-.9Z" transform="translate(-129.93 -238.59)"/><path class="cls-12" d="M133,475h-.51l-.06-2C133.32,473.47,133,474.29,133,475Z" transform="translate(-129.93 -238.59)"/><path class="cls-8" d="M337.94,426.86c-8.68,2.35-16.08,7.33-23.81,11.62-1.78,1-3.5,1.92-5.62,1.43,5-1.69,9.37-4.73,14-7.18,2.81-1.5,5.45-3.41,8.4-4.55C333.08,427.34,335.39,426.11,337.94,426.86Z" transform="translate(-129.93 -238.59)"/><path class="cls-8" d="M359.55,437.48c-4.73-1.87-8.68-5-12.79-7.87a15.24,15.24,0,0,1,7,3.52c1.19,1.17,2.89,1.43,4.19,2.39.89.77,3.07.18,2.55,2.42l-.52-.12Z" transform="translate(-129.93 -238.59)"/><path class="cls-8" d="M307.51,439.78a8.52,8.52,0,0,1-5-1.79c-3-2.08-6.38-3.79-8.62-6.87,2.49.29,3.76,2.31,5.48,3.75A45.21,45.21,0,0,0,307.51,439.78Z" transform="translate(-129.93 -238.59)"/><path class="cls-10" d="M285,421.49c-.1-1.43.57-2.1,2-2C287.22,421,286.55,421.71,285,421.49Z" transform="translate(-129.93 -238.59)"/><path class="cls-10" d="M294.32,427.41c-.12.56-.56.59-.93.45s-1.18-.29-1.17-1a.71.71,0,0,1,.82-.69A1.58,1.58,0,0,1,294.32,427.41Z" transform="translate(-129.93 -238.59)"/><path class="cls-8" d="M293,430.44a3.51,3.51,0,0,1-2.14-1.82C292.16,428.54,292.77,429.27,293,430.44Z" transform="translate(-129.93 -238.59)"/><path class="cls-8" d="M342,427.34a2.38,2.38,0,0,1-2-.44C340.85,426.31,341.57,426.17,342,427.34Z" transform="translate(-129.93 -238.59)"/><path class="cls-6" d="M283.41,421.55l1.56,0,.06,1a.72.72,0,0,0,.13.42.26.26,0,0,1-.23.1A2.09,2.09,0,0,1,283.41,421.55Z" transform="translate(-129.93 -238.59)"/><path class="cls-8" d="M293.89,431.13a.85.85,0,0,1-.84-.66C293.49,430.49,293.84,430.62,293.89,431.13Z" transform="translate(-129.93 -238.59)"/><path class="cls-6" d="M286,424l-.51-.47.67.1Z" transform="translate(-129.93 -238.59)"/><path class="cls-8" d="M290.86,428.62l-.43-.37c.08-.1.2-.32.24-.3C291.05,428.06,290.88,428.37,290.86,428.62Z" transform="translate(-129.93 -238.59)"/><path class="cls-8" d="M344,428.14a.75.75,0,0,1-.86-.45A.62.62,0,0,1,344,428.14Z" transform="translate(-129.93 -238.59)"/><path class="cls-6" d="M288,426a.91.91,0,0,1-.7-.76C287.88,425.14,288,425.52,288,426Z" transform="translate(-129.93 -238.59)"/><path class="cls-6" d="M287.25,425.18A.18.18,0,0,1,287,425l.28-.18Z" transform="translate(-129.93 -238.59)"/><path class="cls-6" d="M289.87,427.69c-.17-.19-.33-.38-.49-.58A.5.5,0,0,1,289.87,427.69Z" transform="translate(-129.93 -238.59)"/><path class="cls-10" d="M285.16,422.92a.72.72,0,0,1-.13-.42,1.94,1.94,0,0,1,.23.27S285.19,422.87,285.16,422.92Z" transform="translate(-129.93 -238.59)"/><path class="cls-8" d="M344.93,428.61c-.21.16-.29.05-.32-.16A.43.43,0,0,1,344.93,428.61Z" transform="translate(-129.93 -238.59)"/><path class="cls-8" d="M346,429.19c-.25.12-.36,0-.39-.22A.47.47,0,0,1,346,429.19Z" transform="translate(-129.93 -238.59)"/><path class="cls-6" d="M289.38,427.12l-.6-.49A.5.5,0,0,1,289.38,427.12Z" transform="translate(-129.93 -238.59)"/><path class="cls-7" d="M229.68,410.83a4,4,0,0,1,1.84,2.17l0,.54-1,0c-.42.05-.81.15-1,.61-.32,1-.84.8-1.42.25s-.77-1.26,0-1.59A2.08,2.08,0,0,0,229.68,410.83Z" transform="translate(-129.93 -238.59)"/><path class="cls-11" d="M249.51,431.51c.16.83.33,1.65.5,2.48-1.74-.25-2.77-1.08-2.48-3l1.46,0Z" transform="translate(-129.93 -238.59)"/><path class="cls-12" d="M233.53,415.52a10.24,10.24,0,0,1,3,3.45C234.88,418.4,233.39,417.67,233.53,415.52Z" transform="translate(-129.93 -238.59)"/><path class="cls-12" d="M249,431l-1.46,0c-.37-.93-1.64-1.35-1.46-2.58A7.33,7.33,0,0,1,249,431Z" transform="translate(-129.93 -238.59)"/><path class="cls-12" d="M244,426.51a3.55,3.55,0,0,1,2.09,1.93C244.89,428.35,243.93,428,244,426.51Z" transform="translate(-129.93 -238.59)"/><path class="cls-12" d="M239.48,422.13a3.19,3.19,0,0,1,1.64,1.8C239.82,424,239.53,423.17,239.48,422.13Z" transform="translate(-129.93 -238.59)"/><path class="cls-12" d="M241.07,423.89a2.52,2.52,0,0,1,1.58,1.51C241.55,425.5,241.05,425,241.07,423.89Z" transform="translate(-129.93 -238.59)"/><path class="cls-12" d="M236.54,419a1.17,1.17,0,0,1,.94,1A.93.93,0,0,1,236.54,419Z" transform="translate(-129.93 -238.59)"/><path class="cls-12" d="M231.55,413.54l0-.54a1.09,1.09,0,0,1,.8,1Z" transform="translate(-129.93 -238.59)"/><path class="cls-12" d="M237.51,420a1.32,1.32,0,0,1,.92,1A1,1,0,0,1,237.51,420Z" transform="translate(-129.93 -238.59)"/><path class="cls-12" d="M238.49,421.07a1.28,1.28,0,0,1,.89,1A1,1,0,0,1,238.49,421.07Z" transform="translate(-129.93 -238.59)"/><path class="cls-12" d="M243.06,425.85a1,1,0,0,1,.93.64C243.57,426.44,243.19,426.33,243.06,425.85Z" transform="translate(-129.93 -238.59)"/><path class="cls-12" d="M242.56,425.37a.53.53,0,0,1,.58.56Z" transform="translate(-129.93 -238.59)"/><path class="cls-12" d="M233,415a.47.47,0,0,1,.46.52Z" transform="translate(-129.93 -238.59)"/><path class="cls-12" d="M232.55,414.36l.5.61Z" transform="translate(-129.93 -238.59)"/><path class="cls-9" d="M211.52,388c-.13.58.3,1.34-.66,1.81-.39-.89-.57-1.57.66-1.81Z" transform="translate(-129.93 -238.59)"/><path class="cls-8" d="M212,387l.63.93-1.15.07h0A1,1,0,0,1,212,387Z" transform="translate(-129.93 -238.59)"/><path class="cls-8" d="M213.11,388.72l.6.72A.7.7,0,0,1,213.11,388.72Z" transform="translate(-129.93 -238.59)"/><path class="cls-7" d="M222.79,402.27a56.29,56.29,0,0,1,6.91,8.56c-1.37.3-1.85-.83-2.55-1.59-1.27-1.4-2.58-2.77-3.78-4.23A2.39,2.39,0,0,1,222.79,402.27Z" transform="translate(-129.93 -238.59)"/><path class="cls-15" d="M190.44,339.55c1.55,3.84,2.09,8,3.6,11.86a190.09,190.09,0,0,0,7.8,17.51,4,4,0,0,1,.76,2.07c-2.25-2-2.94-4.86-4.26-7.37-2-3.82-3.85-7.73-5.76-11.61.22-2.57-.67-4.93-1.47-7.29A10.18,10.18,0,0,1,190.44,339.55Z" transform="translate(-129.93 -238.59)"/><path class="cls-15" d="M189.43,332.53c.75,1.78.61,3.68.8,5.53-1.33-.05-1.2-1-1.2-1.9,0-1.05,0-2.09,0-3.13Z" transform="translate(-129.93 -238.59)"/><path class="cls-14" d="M364.89,440c.23-.07.55-.06.69-.22a1.8,1.8,0,0,1,2.77-.32c1,.89,0,1.7-.35,2.5A8.18,8.18,0,0,1,364.89,440Z" transform="translate(-129.93 -238.59)"/><path class="cls-2" d="M364.89,440a8.18,8.18,0,0,0,3.11,2l1.09,1.19a11.17,11.17,0,0,1-6.06-3.72l1.46.46A1.14,1.14,0,0,0,364.89,440Z" transform="translate(-129.93 -238.59)"/><path class="cls-14" d="M364.49,439.93l-1.46-.46-.45-.27L361.47,438c.62-.72,1.37-1.32,2.32-.79S364.37,439,364.49,439.93Z" transform="translate(-129.93 -238.59)"/><path class="cls-2" d="M383.09,452.66A5.24,5.24,0,0,1,379.5,450,5.88,5.88,0,0,1,383.09,452.66Z" transform="translate(-129.93 -238.59)"/><path class="cls-2" d="M361.47,438l1.11,1.16a1.83,1.83,0,0,1-2.11-1.19Z" transform="translate(-129.93 -238.59)"/><path class="cls-2" d="M371.56,444.78a.86.86,0,0,1-1.09-.75A.91.91,0,0,1,371.56,444.78Z" transform="translate(-129.93 -238.59)"/><path class="cls-2" d="M379.08,449.73c-.64.15-1-.13-1.05-.76A.91.91,0,0,1,379.08,449.73Z" transform="translate(-129.93 -238.59)"/><path class="cls-2" d="M377.58,448.68c-.63.19-1-.07-1.08-.69A.92.92,0,0,1,377.58,448.68Z" transform="translate(-129.93 -238.59)"/><path class="cls-2" d="M376.08,447.73c-.64.16-1-.11-1.05-.75A.92.92,0,0,1,376.08,447.73Z" transform="translate(-129.93 -238.59)"/><path class="cls-2" d="M374.57,446.71c-.64.18-.95-.13-1.06-.72A.91.91,0,0,1,374.57,446.71Z" transform="translate(-129.93 -238.59)"/><path class="cls-2" d="M373.08,445.69A.79.79,0,0,1,372,445,1,1,0,0,1,373.08,445.69Z" transform="translate(-129.93 -238.59)"/><path class="cls-2" d="M370,443.76c-.28.09-.43,0-.47-.3Z" transform="translate(-129.93 -238.59)"/><path class="cls-8" d="M207.58,379.94a11.48,11.48,0,0,1,2.56,4C207.29,383.87,208.07,381.5,207.58,379.94Z" transform="translate(-129.93 -238.59)"/><path class="cls-8" d="M203.49,372.52l1.18,2.47c-2.08.22-1.57-1.31-1.65-2.44Z" transform="translate(-129.93 -238.59)"/><path class="cls-8" d="M206.09,377.33A5,5,0,0,1,207.6,380C205.7,379.88,206.05,378.52,206.09,377.33Z" transform="translate(-129.93 -238.59)"/><path class="cls-8" d="M210.11,383.91a2.08,2.08,0,0,1,1,1.59C210,385.44,210,384.72,210.11,383.91Z" transform="translate(-129.93 -238.59)"/><path class="cls-15" d="M203.49,372.52l-.47,0a.92.92,0,0,1-.32-1.17A1.28,1.28,0,0,1,203.49,372.52Z" transform="translate(-129.93 -238.59)"/><path class="cls-8" d="M204.66,375.17a1.46,1.46,0,0,1,.91,1.31C204.69,376.44,204.5,375.92,204.66,375.17Z" transform="translate(-129.93 -238.59)"/><path class="cls-14" d="M388.58,460.44c-.37-1-.74-2-1.12-3C389.36,457.89,389.2,459.08,388.58,460.44Z" transform="translate(-129.93 -238.59)"/><path class="cls-2" d="M385.81,455.14c-.83-.31-1.63-.65-1.75-1.69A1.73,1.73,0,0,1,385.81,455.14Z" transform="translate(-129.93 -238.59)"/><path class="cls-11" d="M388.86,452c-.11.07-.32.29-.45.26-.5-.15-.42-.61-.43-1,0-.54.34-.15.46-.12C388.8,451.19,388.91,451.48,388.86,452Z" transform="translate(-129.93 -238.59)"/><path class="cls-2" d="M386.49,455.94a.42.42,0,0,1-.44-.49Z" transform="translate(-129.93 -238.59)"/><path class="cls-12" d="M388,468.45a1,1,0,0,1,.5-1c.45.32.67.75.26,1.2C388.45,469,388.15,468.75,388,468.45Z" transform="translate(-129.93 -238.59)"/><path class="cls-14" d="M358.87,493.34l-1.32.17A1.26,1.26,0,0,1,358.87,493.34Z" transform="translate(-129.93 -238.59)"/><path class="cls-2" d="M359.55,437.48l.44.34Z" transform="translate(-129.93 -238.59)"/><path class="cls-14" d="M342.24,492.38l-.72-.23Z" transform="translate(-129.93 -238.59)"/><path class="cls-4" d="M347.48,494c-.16.35-.33.35-.49,0A4,4,0,0,1,347.48,494Z" transform="translate(-129.93 -238.59)"/><rect class="cls-18" x="1" y="1" width="312.74" height="312.74" rx="72.33"/></svg>